<svg width="46" height="46" viewBox="0 0 46 46" fill="none" xmlns="http://www.w3.org/2000/svg">
<rect width="46" height="46" rx="23" fill="#47C8FE"/>
<path d="M26.0385 27.2179L25.865 28.0853C26.2562 28.1637 26.6513 27.9703 26.8297 27.6135L26.0385 27.2179ZM17.7821 18.9615L17.3864 18.1703C17.0296 18.3487 16.8364 18.7439 16.9146 19.135L17.7821 18.9615ZM27.5128 21.3205C27.5128 21.8091 27.9089 22.2051 28.3974 22.2051C28.886 22.2051 29.2821 21.8091 29.2821 21.3205H27.5128ZM23.6795 15.7179C23.1909 15.7179 22.7949 16.114 22.7949 16.6026C22.7949 17.0911 23.1909 17.4872 23.6795 17.4872V15.7179ZM32.2308 21.3205C32.2308 21.8091 32.6268 22.2051 33.1154 22.2051C33.6039 22.2051 34 21.8091 34 21.3205H32.2308ZM23.6795 11C23.1909 11 22.7949 11.3961 22.7949 11.8846C22.7949 12.3732 23.1909 12.7692 23.6795 12.7692V11ZM32.2308 28.8151V30.7564H34V28.8151H32.2308ZM14.2436 12.7692H16.1849V11H14.2436V12.7692ZM26.0385 27.2179C26.212 26.3506 26.2122 26.3506 26.2124 26.3506C26.2097 26.35 26.2036 26.3488 26.1955 26.3469C26.1792 26.3434 26.1525 26.3372 26.1162 26.3285C26.0437 26.3108 25.9328 26.2821 25.7905 26.2403C25.5056 26.1564 25.0968 26.0204 24.6177 25.8151C23.6554 25.4027 22.4338 24.7213 21.3563 23.6437L20.1053 24.8947C21.3867 26.1761 22.8189 26.9691 23.9208 27.4413C24.4738 27.6783 24.9496 27.8372 25.2913 27.9376C25.4623 27.9879 25.6003 28.0238 25.6981 28.0476C25.747 28.0595 25.7859 28.0684 25.814 28.0746C25.8282 28.0777 25.8395 28.08 25.848 28.0819C25.8522 28.0828 25.8558 28.0836 25.8586 28.084C25.86 28.0844 25.8613 28.0846 25.8624 28.0849C25.8628 28.085 25.8633 28.0851 25.8638 28.0851C25.864 28.0852 25.8648 28.0853 25.865 28.0853C25.8653 28.0855 25.865 28.0853 26.0385 27.2179ZM21.3563 23.6437C20.2787 22.5662 19.5973 21.3446 19.1849 20.3823C18.9795 19.9032 18.8435 19.4945 18.7597 19.2095C18.7179 19.0672 18.6892 18.9564 18.6715 18.8838C18.6627 18.8475 18.6567 18.8208 18.6531 18.8045C18.6513 18.7964 18.6501 18.7909 18.6495 18.7881C18.6492 18.7867 18.6491 18.786 18.6491 18.786C18.649 18.7857 18.6491 18.786 18.6491 18.786C18.6491 18.786 18.6492 18.7867 18.6495 18.7881C18.6495 18.788 18.6495 18.7882 18.6495 18.7881C18.6496 18.7883 18.6495 18.788 17.7821 18.9615C16.9146 19.135 16.9146 19.1347 16.9146 19.135C16.9146 19.1351 16.9148 19.136 16.9149 19.1362C16.9149 19.1366 16.915 19.1371 16.9151 19.1377C16.9154 19.1387 16.9156 19.14 16.9159 19.1414C16.9165 19.1442 16.9172 19.1478 16.9181 19.152C16.9199 19.1606 16.9223 19.1719 16.9254 19.1859C16.9316 19.214 16.9405 19.253 16.9524 19.3019C16.9762 19.3998 17.0121 19.5377 17.0624 19.7087C17.1629 20.0504 17.3217 20.5262 17.5587 21.0792C18.0309 22.1811 18.8238 23.6133 20.1053 24.8947L21.3563 23.6437ZM18.1777 19.7528L18.5952 19.544L17.804 17.9615L17.3864 18.1703L18.1777 19.7528ZM20.1562 15.4382L19.1966 13.039L17.5539 13.696L18.5135 16.0953L20.1562 15.4382ZM31.961 25.8035L29.5618 24.8438L28.9047 26.4864L31.3039 27.4462L31.961 25.8035ZM25.456 26.4048L25.2473 26.8223L26.8297 27.6135L27.0384 27.196L25.456 26.4048ZM29.5618 24.8438C27.9955 24.2172 26.2104 24.8959 25.456 26.4048L27.0384 27.196C27.3814 26.5101 28.1928 26.2017 28.9047 26.4864L29.5618 24.8438ZM18.5952 19.544C20.1041 18.7896 20.7828 17.0045 20.1562 15.4382L18.5135 16.0953C18.7983 16.8072 18.4898 17.6186 17.804 17.9615L18.5952 19.544ZM16.1849 12.7692C16.7878 12.7692 17.33 13.1363 17.5539 13.696L19.1966 13.039C18.704 11.8075 17.5113 11 16.1849 11V12.7692ZM34 28.8151C34 27.4888 33.1925 26.2961 31.961 25.8035L31.3039 27.4462C31.8637 27.67 32.2308 28.2121 32.2308 28.8151H34ZM30.7564 32.2308C20.8224 32.2308 12.7692 24.1776 12.7692 14.2436H11C11 25.1548 19.8452 34 30.7564 34V32.2308ZM30.7564 34C32.5478 34 34 32.5478 34 30.7564H32.2308C32.2308 31.5707 31.5707 32.2308 30.7564 32.2308V34ZM12.7692 14.2436C12.7692 13.4293 13.4293 12.7692 14.2436 12.7692V11C12.4522 11 11 12.4522 11 14.2436H12.7692ZM29.2821 21.3205C29.2821 20.5847 29.1371 19.8562 28.8555 19.1765L27.221 19.8536C27.4136 20.3187 27.5128 20.8171 27.5128 21.3205H29.2821ZM28.8555 19.1765C28.574 18.4968 28.1613 17.8791 27.6411 17.3589L26.3901 18.6099C26.746 18.9659 27.0284 19.3885 27.221 19.8536L28.8555 19.1765ZM27.6411 17.3589C27.1209 16.8387 26.5032 16.426 25.8234 16.1444L25.1464 17.779C25.6115 17.9716 26.0341 18.254 26.3901 18.6099L27.6411 17.3589ZM25.8234 16.1444C25.1438 15.8629 24.4153 15.7179 23.6795 15.7179V17.4872C24.1829 17.4872 24.6813 17.5863 25.1464 17.779L25.8234 16.1444ZM34 21.3205C34 19.9652 33.7331 18.6232 33.2143 17.371L31.5798 18.0481C32.0096 19.0856 32.2308 20.1975 32.2308 21.3205H34ZM33.2143 17.371C32.6957 16.1189 31.9355 14.9812 30.9772 14.0228L29.7261 15.2738C30.5202 16.0679 31.1501 17.0106 31.5798 18.0481L33.2143 17.371ZM30.9772 14.0228C30.0189 13.0645 28.8811 12.3043 27.629 11.7856L26.952 13.4202C27.9895 13.8499 28.9321 14.4798 29.7261 15.2738L30.9772 14.0228ZM27.629 11.7856C26.3769 11.267 25.0348 11 23.6795 11V12.7692C24.8025 12.7692 25.9144 12.9904 26.952 13.4202L27.629 11.7856Z" fill="#293549"/>
</svg>
