<svg width="46" height="46" viewBox="0 0 46 46" fill="none" xmlns="http://www.w3.org/2000/svg">
<rect width="46" height="46" rx="23" fill="#47C8FE"/>
<path d="M11.3816 32.5685C13.8141 34.1594 16.645 35 19.5679 35C23.8482 35 27.7705 33.3053 30.6135 30.2284C33.3338 27.2836 34.8303 23.3266 34.7558 19.311C35.7871 18.4016 37 16.6652 37 14.9727C37 14.324 36.3169 13.9121 35.763 14.2427C34.7942 14.8294 33.9107 14.9829 33.0021 14.72C31.1466 12.8561 28.3846 12.4634 26.0573 13.7564C24.0233 14.8847 22.8925 16.9495 22.9943 19.2061C19.558 18.774 16.3833 16.998 14.1698 14.2382C13.8064 13.788 13.1167 13.8411 12.8277 14.3511C11.7615 16.233 11.7724 18.414 12.6996 20.1753C12.2585 20.2554 11.9859 20.6379 11.9859 21.052C11.9859 22.8223 12.7588 24.4493 14.0034 25.5595C13.7714 25.7897 13.6947 26.1316 13.7933 26.4362C14.3406 28.1309 15.5798 29.4556 17.1288 30.119C15.4441 30.9483 13.5809 31.2247 11.9224 31.0149C11.0642 30.8953 10.6405 32.0845 11.3816 32.5685ZM19.7923 30.409C20.4064 29.9227 20.0802 28.9095 19.3095 28.8925C17.9521 28.8632 16.7161 28.1738 15.9466 27.0895C16.3177 27.0647 16.7019 27.006 17.0675 26.9045C17.9006 26.672 17.8612 25.4332 17.015 25.2583C15.4791 24.9401 14.2738 23.787 13.8217 22.3022C14.2344 22.4071 14.6548 22.4658 15.0741 22.4737C15.905 22.4782 16.2191 21.3803 15.5415 20.9211C14.0144 19.8842 13.363 18.053 13.7944 16.3312C16.4611 19.1158 20.0791 20.7936 23.9062 20.9832C24.4546 21.0182 24.8662 20.4867 24.7458 19.9485C24.2258 17.6254 25.4848 15.9972 26.8367 15.2469C28.1745 14.5022 30.3223 14.2698 31.9687 16.0503C32.4581 16.5817 34.1089 16.602 34.9485 16.4C34.5719 17.1312 33.9928 17.8251 33.451 18.2155C33.22 18.3825 33.0875 18.66 33.1017 18.95C33.278 22.6564 31.9381 26.3415 29.4257 29.0595C26.8947 31.7979 23.395 33.3064 19.5689 33.3064C18.0473 33.3064 16.5552 33.0514 15.1452 32.5595C16.8311 32.2233 18.4326 31.4876 19.7923 30.409Z" fill="#293549"/>
</svg>
